<svg xmlns="http://www.w3.org/2000/svg" xmlns:xlink="http://www.w3.org/1999/xlink" width="500" zoomAndPan="magnify" viewBox="0 0 375 374.999991" height="500" preserveAspectRatio="xMidYMid meet" version="1.0"><defs><g/><clipPath id="de00c52326"><path d="M 0 199 L 374.398438 199 L 374.398438 256 L 0 256 Z M 0 199 " clip-rule="nonzero"/></clipPath><clipPath id="083a189098"><rect x="0" width="375" y="0" height="57"/></clipPath><clipPath id="b7d158e8f4"><path d="M 34 253 L 347 253 L 347 280.359375 L 34 280.359375 Z M 34 253 " clip-rule="nonzero"/></clipPath><clipPath id="7462b552cd"><rect x="0" width="313" y="0" height="28"/></clipPath><clipPath id="deb9703efd"><rect x="0" width="375" y="0" height="281"/></clipPath></defs><g transform="matrix(1, 0, 0, 1, 0, 47)"><g clip-path="url(#deb9703efd)"><g clip-path="url(#de00c52326)"><g transform="matrix(1, 0, 0, 1, 0, 199)"><g clip-path="url(#083a189098)"><g fill="#131516" fill-opacity="1"><g transform="translate(0.735577, 45.247572)"><g><path d="M 3.546875 0 L 3.546875 -30.265625 L 9.71875 -30.265625 L 9.71875 -5.53125 L 23.6875 -5.53125 L 23.6875 0 Z M 3.546875 0 "/></g></g></g><g fill="#131516" fill-opacity="1"><g transform="translate(25.534627, 45.247572)"><g><path d="M 16.25 0.453125 C 13.53125 0.453125 11.109375 -0.1875 8.984375 -1.46875 C 6.859375 -2.757812 5.175781 -4.566406 3.9375 -6.890625 C 2.707031 -9.222656 2.09375 -11.96875 2.09375 -15.125 C 2.09375 -18.3125 2.707031 -21.066406 3.9375 -23.390625 C 5.175781 -25.722656 6.859375 -27.523438 8.984375 -28.796875 C 11.109375 -30.066406 13.53125 -30.703125 16.25 -30.703125 C 18.988281 -30.703125 21.421875 -30.070312 23.546875 -28.8125 C 25.679688 -27.5625 27.359375 -25.769531 28.578125 -23.4375 C 29.796875 -21.113281 30.40625 -18.34375 30.40625 -15.125 C 30.40625 -11.96875 29.785156 -9.21875 28.546875 -6.875 C 27.316406 -4.53125 25.644531 -2.722656 23.53125 -1.453125 C 21.414062 -0.179688 18.988281 0.453125 16.25 0.453125 Z M 16.25 -5.078125 C 17.863281 -5.078125 19.265625 -5.492188 20.453125 -6.328125 C 21.640625 -7.160156 22.5625 -8.332031 23.21875 -9.84375 C 23.875 -11.351562 24.203125 -13.113281 24.203125 -15.125 C 24.203125 -17.164062 23.875 -18.941406 23.21875 -20.453125 C 22.5625 -21.960938 21.640625 -23.125 20.453125 -23.9375 C 19.265625 -24.757812 17.863281 -25.171875 16.25 -25.171875 C 14.65625 -25.171875 13.257812 -24.757812 12.0625 -23.9375 C 10.863281 -23.125 9.9375 -21.960938 9.28125 -20.453125 C 8.625 -18.941406 8.296875 -17.164062 8.296875 -15.125 C 8.296875 -13.113281 8.625 -11.351562 9.28125 -9.84375 C 9.9375 -8.332031 10.863281 -7.160156 12.0625 -6.328125 C 13.257812 -5.492188 14.65625 -5.078125 16.25 -5.078125 Z M 16.25 -5.078125 "/></g></g></g><g fill="#131516" fill-opacity="1"><g transform="translate(58.027346, 45.247572)"><g><path d="M 15.65625 0.453125 C 13.007812 0.453125 10.664062 -0.210938 8.625 -1.546875 C 6.582031 -2.878906 4.984375 -4.71875 3.828125 -7.0625 C 2.671875 -9.40625 2.09375 -12.082031 2.09375 -15.09375 C 2.09375 -18.175781 2.695312 -20.890625 3.90625 -23.234375 C 5.113281 -25.578125 6.78125 -27.40625 8.90625 -28.71875 C 11.039062 -30.039062 13.5 -30.703125 16.28125 -30.703125 C 18.601562 -30.703125 20.675781 -30.257812 22.5 -29.375 C 24.332031 -28.5 25.828125 -27.253906 26.984375 -25.640625 C 28.148438 -24.035156 28.867188 -22.160156 29.140625 -20.015625 L 22.671875 -20.015625 C 22.472656 -21.535156 21.796875 -22.765625 20.640625 -23.703125 C 19.484375 -24.640625 18.03125 -25.109375 16.28125 -25.109375 C 14.6875 -25.109375 13.289062 -24.6875 12.09375 -23.84375 C 10.90625 -23.007812 9.972656 -21.835938 9.296875 -20.328125 C 8.628906 -18.828125 8.296875 -17.070312 8.296875 -15.0625 C 8.296875 -13.007812 8.632812 -11.210938 9.3125 -9.671875 C 10 -8.128906 10.957031 -6.929688 12.1875 -6.078125 C 13.425781 -5.234375 14.851562 -4.8125 16.46875 -4.8125 C 17.738281 -4.8125 18.875 -5.035156 19.875 -5.484375 C 20.875 -5.929688 21.660156 -6.5625 22.234375 -7.375 C 22.804688 -8.1875 23.09375 -9.078125 23.09375 -10.046875 L 23.09375 -11.203125 L 15.984375 -11.203125 L 15.984375 -16.09375 L 24.6875 -16.09375 C 26.15625 -16.09375 27.265625 -15.71875 28.015625 -14.96875 C 28.765625 -14.226562 29.140625 -13.125 29.140625 -11.65625 L 29.140625 0 L 23.5 0 L 23.5 -3.515625 L 23.34375 -3.515625 C 22.675781 -2.242188 21.679688 -1.265625 20.359375 -0.578125 C 19.035156 0.109375 17.46875 0.453125 15.65625 0.453125 Z M 15.65625 0.453125 "/></g></g></g><g fill="#131516" fill-opacity="1"><g transform="translate(89.997203, 45.247572)"><g><path d="M 0.21875 0 L 11.8125 -30.265625 L 18.15625 -30.265625 L 29.59375 0 L 23.125 0 L 20.546875 -7.390625 L 9.265625 -7.390625 L 6.5 0 Z M 11.125 -12.703125 L 18.828125 -12.703125 L 15.171875 -23.15625 L 15.015625 -23.15625 Z M 11.125 -12.703125 "/></g></g></g><g fill="#131516" fill-opacity="1"><g transform="translate(119.800877, 45.247572)"><g><path d="M 29.625 0 L 23.046875 0 L 9.484375 -20.328125 L 9.34375 -20.328125 L 9.34375 0 L 3.546875 0 L 3.546875 -30.265625 L 9.828125 -30.265625 L 23.6875 -9.484375 L 23.828125 -9.484375 L 23.828125 -30.265625 L 29.625 -30.265625 Z M 29.625 0 "/></g></g></g><g fill="#131516" fill-opacity="1"><g transform="translate(152.965869, 45.247572)"><g/></g></g><g fill="#131516" fill-opacity="1"><g transform="translate(163.572684, 45.247572)"><g><path d="M 3.546875 0 L 3.546875 -30.265625 L 11.8125 -30.265625 L 19.65625 -8.921875 L 19.796875 -8.921875 L 27.609375 -30.265625 L 35.828125 -30.265625 L 35.828125 0 L 29.65625 0 L 29.65625 -21.375 L 29.515625 -21.375 L 22.078125 0 L 16.890625 0 L 9.484375 -21.375 L 9.34375 -21.375 L 9.34375 0 Z M 3.546875 0 "/></g></g></g><g fill="#131516" fill-opacity="1"><g transform="translate(202.937434, 45.247572)"><g><path d="M 3.625 0 L 3.625 -30.265625 L 9.828125 -30.265625 L 9.828125 0 Z M 3.625 0 "/></g></g></g><g fill="#131516" fill-opacity="1"><g transform="translate(216.382706, 45.247572)"><g><path d="M 29.625 0 L 23.046875 0 L 9.484375 -20.328125 L 9.34375 -20.328125 L 9.34375 0 L 3.546875 0 L 3.546875 -30.265625 L 9.828125 -30.265625 L 23.6875 -9.484375 L 23.828125 -9.484375 L 23.828125 -30.265625 L 29.625 -30.265625 Z M 29.625 0 "/></g></g></g><g fill="#131516" fill-opacity="1"><g transform="translate(249.547699, 45.247572)"><g><path d="M 0.21875 0 L 11.8125 -30.265625 L 18.15625 -30.265625 L 29.59375 0 L 23.125 0 L 20.546875 -7.390625 L 9.265625 -7.390625 L 6.5 0 Z M 11.125 -12.703125 L 18.828125 -12.703125 L 15.171875 -23.15625 L 15.015625 -23.15625 Z M 11.125 -12.703125 "/></g></g></g><g fill="#131516" fill-opacity="1"><g transform="translate(279.351372, 45.247572)"><g><path d="M 15.5 0.453125 C 13.1875 0.453125 11.109375 0.03125 9.265625 -0.8125 C 7.421875 -1.664062 5.960938 -2.957031 4.890625 -4.6875 C 3.816406 -6.414062 3.28125 -8.613281 3.28125 -11.28125 L 3.28125 -30.265625 L 9.59375 -30.265625 L 9.59375 -12.171875 C 9.59375 -10.085938 10.109375 -8.445312 11.140625 -7.25 C 12.179688 -6.050781 13.695312 -5.453125 15.6875 -5.453125 C 17.726562 -5.453125 19.253906 -6.085938 20.265625 -7.359375 C 21.273438 -8.628906 21.78125 -10.222656 21.78125 -12.140625 L 21.78125 -30.265625 L 27.9375 -30.265625 L 27.9375 -11.203125 C 27.9375 -8.660156 27.414062 -6.523438 26.375 -4.796875 C 25.332031 -3.066406 23.875 -1.757812 22 -0.875 C 20.132812 0.0078125 17.96875 0.453125 15.5 0.453125 Z M 15.5 0.453125 "/></g></g></g><g fill="#131516" fill-opacity="1"><g transform="translate(310.574283, 45.247572)"><g><path d="M 3.546875 0 L 3.546875 -30.265625 L 14.15625 -30.265625 C 17.195312 -30.265625 19.832031 -29.648438 22.0625 -28.421875 C 24.289062 -27.203125 26.023438 -25.457031 27.265625 -23.1875 C 28.515625 -20.925781 29.140625 -18.238281 29.140625 -15.125 C 29.140625 -12.039062 28.515625 -9.363281 27.265625 -7.09375 C 26.023438 -4.832031 24.28125 -3.082031 22.03125 -1.84375 C 19.789062 -0.613281 17.164062 0 14.15625 0 Z M 9.71875 -5.375 L 14.15625 -5.375 C 16.050781 -5.375 17.644531 -5.785156 18.9375 -6.609375 C 20.226562 -7.429688 21.21875 -8.570312 21.90625 -10.03125 C 22.59375 -11.488281 22.9375 -13.1875 22.9375 -15.125 C 22.9375 -18.039062 22.175781 -20.394531 20.65625 -22.1875 C 19.132812 -23.976562 16.96875 -24.875 14.15625 -24.875 L 9.71875 -24.875 Z M 9.71875 -5.375 "/></g></g></g><g fill="#131516" fill-opacity="1"><g transform="translate(341.722454, 45.247572)"><g><path d="M 16.25 0.453125 C 13.53125 0.453125 11.109375 -0.1875 8.984375 -1.46875 C 6.859375 -2.757812 5.175781 -4.566406 3.9375 -6.890625 C 2.707031 -9.222656 2.09375 -11.96875 2.09375 -15.125 C 2.09375 -18.3125 2.707031 -21.066406 3.9375 -23.390625 C 5.175781 -25.722656 6.859375 -27.523438 8.984375 -28.796875 C 11.109375 -30.066406 13.53125 -30.703125 16.25 -30.703125 C 18.988281 -30.703125 21.421875 -30.070312 23.546875 -28.8125 C 25.679688 -27.5625 27.359375 -25.769531 28.578125 -23.4375 C 29.796875 -21.113281 30.40625 -18.34375 30.40625 -15.125 C 30.40625 -11.96875 29.785156 -9.21875 28.546875 -6.875 C 27.316406 -4.53125 25.644531 -2.722656 23.53125 -1.453125 C 21.414062 -0.179688 18.988281 0.453125 16.25 0.453125 Z M 16.25 -5.078125 C 17.863281 -5.078125 19.265625 -5.492188 20.453125 -6.328125 C 21.640625 -7.160156 22.5625 -8.332031 23.21875 -9.84375 C 23.875 -11.351562 24.203125 -13.113281 24.203125 -15.125 C 24.203125 -17.164062 23.875 -18.941406 23.21875 -20.453125 C 22.5625 -21.960938 21.640625 -23.125 20.453125 -23.9375 C 19.265625 -24.757812 17.863281 -25.171875 16.25 -25.171875 C 14.65625 -25.171875 13.257812 -24.757812 12.0625 -23.9375 C 10.863281 -23.125 9.9375 -21.960938 9.28125 -20.453125 C 8.625 -18.941406 8.296875 -17.164062 8.296875 -15.125 C 8.296875 -13.113281 8.625 -11.351562 9.28125 -9.84375 C 9.9375 -8.332031 10.863281 -7.160156 12.0625 -6.328125 C 13.257812 -5.492188 14.65625 -5.078125 16.25 -5.078125 Z M 16.25 -5.078125 "/></g></g></g></g></g></g><g clip-path="url(#b7d158e8f4)"><g transform="matrix(1, 0, 0, 1, 34, 253)"><g clip-path="url(#7462b552cd)"><g fill="#131516" fill-opacity="1"><g transform="translate(1.103992, 21.660548)"><g><path d="M 6.515625 0.203125 C 5.421875 0.203125 4.460938 0.015625 3.640625 -0.359375 C 2.816406 -0.734375 2.171875 -1.253906 1.703125 -1.921875 C 1.234375 -2.585938 0.96875 -3.367188 0.90625 -4.265625 L 2.921875 -4.265625 C 3.035156 -3.359375 3.410156 -2.664062 4.046875 -2.1875 C 4.691406 -1.71875 5.539062 -1.484375 6.59375 -1.484375 C 7.582031 -1.484375 8.34375 -1.6875 8.875 -2.09375 C 9.40625 -2.507812 9.671875 -3.085938 9.671875 -3.828125 C 9.671875 -4.421875 9.484375 -4.910156 9.109375 -5.296875 C 8.734375 -5.691406 8.144531 -5.972656 7.34375 -6.140625 L 5.109375 -6.640625 C 3.929688 -6.898438 3.035156 -7.34375 2.421875 -7.96875 C 1.804688 -8.59375 1.5 -9.390625 1.5 -10.359375 C 1.5 -11.140625 1.691406 -11.828125 2.078125 -12.421875 C 2.472656 -13.015625 3.023438 -13.476562 3.734375 -13.8125 C 4.453125 -14.15625 5.296875 -14.328125 6.265625 -14.328125 C 7.242188 -14.328125 8.101562 -14.148438 8.84375 -13.796875 C 9.59375 -13.441406 10.191406 -12.945312 10.640625 -12.3125 C 11.085938 -11.6875 11.359375 -10.941406 11.453125 -10.078125 L 9.4375 -10.078125 C 9.28125 -10.921875 8.914062 -11.5625 8.34375 -12 C 7.78125 -12.4375 7.050781 -12.65625 6.15625 -12.65625 C 5.320312 -12.65625 4.648438 -12.460938 4.140625 -12.078125 C 3.628906 -11.691406 3.375 -11.171875 3.375 -10.515625 C 3.375 -9.992188 3.550781 -9.546875 3.90625 -9.171875 C 4.269531 -8.804688 4.851562 -8.539062 5.65625 -8.375 L 7.96875 -7.84375 C 9.164062 -7.570312 10.0625 -7.117188 10.65625 -6.484375 C 11.257812 -5.847656 11.5625 -5.019531 11.5625 -4 C 11.5625 -2.71875 11.113281 -1.695312 10.21875 -0.9375 C 9.332031 -0.175781 8.097656 0.203125 6.515625 0.203125 Z M 6.515625 0.203125 "/></g></g></g><g fill="#131516" fill-opacity="1"><g transform="translate(19.327767, 21.660548)"><g><path d="M 7.578125 0.203125 C 6.335938 0.203125 5.226562 -0.09375 4.25 -0.6875 C 3.28125 -1.289062 2.515625 -2.132812 1.953125 -3.21875 C 1.390625 -4.300781 1.109375 -5.582031 1.109375 -7.0625 C 1.109375 -8.550781 1.390625 -9.835938 1.953125 -10.921875 C 2.515625 -12.003906 3.28125 -12.84375 4.25 -13.4375 C 5.226562 -14.03125 6.335938 -14.328125 7.578125 -14.328125 C 8.835938 -14.328125 9.953125 -14.035156 10.921875 -13.453125 C 11.898438 -12.867188 12.664062 -12.03125 13.21875 -10.9375 C 13.769531 -9.851562 14.046875 -8.5625 14.046875 -7.0625 C 14.046875 -5.582031 13.765625 -4.296875 13.203125 -3.203125 C 12.648438 -2.109375 11.890625 -1.265625 10.921875 -0.671875 C 9.953125 -0.0859375 8.835938 0.203125 7.578125 0.203125 Z M 7.578125 -1.53125 C 8.503906 -1.53125 9.304688 -1.757812 9.984375 -2.21875 C 10.660156 -2.675781 11.179688 -3.320312 11.546875 -4.15625 C 11.910156 -4.988281 12.09375 -5.957031 12.09375 -7.0625 C 12.09375 -8.175781 11.910156 -9.148438 11.546875 -9.984375 C 11.179688 -10.816406 10.660156 -11.457031 9.984375 -11.90625 C 9.304688 -12.363281 8.503906 -12.59375 7.578125 -12.59375 C 6.660156 -12.59375 5.863281 -12.363281 5.1875 -11.90625 C 4.519531 -11.457031 4 -10.816406 3.625 -9.984375 C 3.25 -9.148438 3.0625 -8.175781 3.0625 -7.0625 C 3.0625 -5.957031 3.25 -4.988281 3.625 -4.15625 C 4 -3.320312 4.519531 -2.675781 5.1875 -2.21875 C 5.863281 -1.757812 6.660156 -1.53125 7.578125 -1.53125 Z M 7.578125 -1.53125 "/></g></g></g><g fill="#131516" fill-opacity="1"><g transform="translate(40.095722, 21.660548)"><g><path d="M 3.828125 0 L 1.90625 0 L 1.90625 -14.125 L 10.703125 -14.125 L 10.703125 -12.40625 L 3.828125 -12.40625 L 3.828125 -7.96875 L 10.296875 -7.96875 L 10.296875 -6.265625 L 3.828125 -6.265625 Z M 3.828125 0 "/></g></g></g><g fill="#131516" fill-opacity="1"><g transform="translate(56.925419, 21.660548)"><g><path d="M 6.96875 0 L 5.0625 0 L 5.0625 -12.40625 L 0.421875 -12.40625 L 0.421875 -14.125 L 11.609375 -14.125 L 11.609375 -12.40625 L 6.96875 -12.40625 Z M 6.96875 0 "/></g></g></g><g fill="#131516" fill-opacity="1"><g transform="translate(74.556706, 21.660548)"><g><path d="M 4.25 0 L 0.625 -14.125 L 2.671875 -14.125 L 5.3125 -2.671875 L 5.390625 -2.671875 L 8.453125 -14.125 L 10.375 -14.125 L 13.59375 -2.671875 L 13.671875 -2.671875 L 16.296875 -14.125 L 18.34375 -14.125 L 14.71875 0 L 12.65625 0 L 9.4375 -11.578125 L 9.359375 -11.578125 L 6.3125 0 Z M 4.25 0 "/></g></g></g><g fill="#131516" fill-opacity="1"><g transform="translate(99.123529, 21.660548)"><g><path d="M 0.109375 0 L 5.59375 -14.125 L 7.734375 -14.125 L 13.1875 0 L 11.171875 0 L 9.625 -4.21875 L 3.640625 -4.21875 L 2.0625 0 Z M 4.265625 -5.921875 L 9.015625 -5.921875 L 6.6875 -12.203125 L 6.625 -12.203125 Z M 4.265625 -5.921875 "/></g></g></g><g fill="#131516" fill-opacity="1"><g transform="translate(118.009488, 21.660548)"><g><path d="M 1.90625 0 L 1.90625 -14.125 L 7.9375 -14.125 C 8.789062 -14.125 9.539062 -13.972656 10.1875 -13.671875 C 10.832031 -13.367188 11.335938 -12.925781 11.703125 -12.34375 C 12.066406 -11.769531 12.25 -11.070312 12.25 -10.25 C 12.25 -9.625 12.113281 -9.050781 11.84375 -8.53125 C 11.582031 -8.019531 11.15625 -7.601562 10.5625 -7.28125 L 10.5625 -7.21875 C 11.113281 -7.21875 11.53125 -7.066406 11.8125 -6.765625 C 12.101562 -6.472656 12.25 -6.054688 12.25 -5.515625 L 12.25 0 L 10.34375 0 L 10.34375 -5.78125 L 3.828125 -5.78125 L 3.828125 0 Z M 3.828125 -7.4375 L 7.734375 -7.4375 C 8.515625 -7.4375 9.144531 -7.65625 9.625 -8.09375 C 10.113281 -8.53125 10.359375 -9.144531 10.359375 -9.9375 C 10.359375 -10.738281 10.113281 -11.351562 9.625 -11.78125 C 9.144531 -12.21875 8.515625 -12.4375 7.734375 -12.4375 L 3.828125 -12.4375 Z M 3.828125 -7.4375 "/></g></g></g><g fill="#131516" fill-opacity="1"><g transform="translate(137.487933, 21.660548)"><g><path d="M 10.875 0 L 1.90625 0 L 1.90625 -14.125 L 10.875 -14.125 L 10.875 -12.40625 L 3.828125 -12.40625 L 3.828125 -8.15625 L 10.5 -8.15625 L 10.5 -6.484375 L 3.828125 -6.484375 L 3.828125 -1.703125 L 10.875 -1.703125 Z M 10.875 0 "/></g></g></g><g fill="#131516" fill-opacity="1"><g transform="translate(155.014669, 21.660548)"><g/></g></g><g fill="#131516" fill-opacity="1"><g transform="translate(165.780116, 21.660548)"><g><path d="M 10.875 0 L 1.90625 0 L 1.90625 -14.125 L 10.875 -14.125 L 10.875 -12.40625 L 3.828125 -12.40625 L 3.828125 -8.15625 L 10.5 -8.15625 L 10.5 -6.484375 L 3.828125 -6.484375 L 3.828125 -1.703125 L 10.875 -1.703125 Z M 10.875 0 "/></g></g></g><g fill="#131516" fill-opacity="1"><g transform="translate(183.306851, 21.660548)"><g><path d="M 13.484375 0 L 11.3125 0 L 3.765625 -11.28125 L 3.703125 -11.28125 L 3.703125 0 L 1.90625 0 L 1.90625 -14.125 L 4.03125 -14.125 L 11.609375 -2.796875 L 11.6875 -2.796875 L 11.6875 -14.125 L 13.484375 -14.125 Z M 13.484375 0 "/></g></g></g><g fill="#131516" fill-opacity="1"><g transform="translate(204.283928, 21.660548)"><g><path d="M 7.375 0.203125 C 6.15625 0.203125 5.070312 -0.101562 4.125 -0.71875 C 3.1875 -1.332031 2.445312 -2.1875 1.90625 -3.28125 C 1.375 -4.382812 1.109375 -5.644531 1.109375 -7.0625 C 1.109375 -8.5 1.390625 -9.765625 1.953125 -10.859375 C 2.515625 -11.953125 3.289062 -12.800781 4.28125 -13.40625 C 5.269531 -14.019531 6.40625 -14.328125 7.6875 -14.328125 C 8.6875 -14.328125 9.578125 -14.140625 10.359375 -13.765625 C 11.148438 -13.398438 11.796875 -12.878906 12.296875 -12.203125 C 12.804688 -11.523438 13.132812 -10.71875 13.28125 -9.78125 L 11.28125 -9.78125 C 11.144531 -10.644531 10.753906 -11.328125 10.109375 -11.828125 C 9.472656 -12.335938 8.664062 -12.59375 7.6875 -12.59375 C 6.769531 -12.59375 5.960938 -12.359375 5.265625 -11.890625 C 4.566406 -11.429688 4.023438 -10.785156 3.640625 -9.953125 C 3.253906 -9.128906 3.0625 -8.160156 3.0625 -7.046875 C 3.0625 -5.960938 3.253906 -5 3.640625 -4.15625 C 4.023438 -3.3125 4.5625 -2.644531 5.25 -2.15625 C 5.9375 -1.664062 6.726562 -1.421875 7.625 -1.421875 C 8.351562 -1.421875 9 -1.5625 9.5625 -1.84375 C 10.125 -2.132812 10.570312 -2.519531 10.90625 -3 C 11.238281 -3.488281 11.40625 -4.03125 11.40625 -4.625 L 11.40625 -5.515625 L 7.375 -5.515625 L 7.375 -7.125 L 11.59375 -7.125 C 12.132812 -7.125 12.550781 -6.976562 12.84375 -6.6875 C 13.132812 -6.40625 13.28125 -5.988281 13.28125 -5.4375 L 13.28125 0 L 11.46875 0 L 11.46875 -2.0625 L 11.40625 -2.0625 C 11.132812 -1.394531 10.644531 -0.847656 9.9375 -0.421875 C 9.226562 -0.00390625 8.375 0.203125 7.375 0.203125 Z M 7.375 0.203125 "/></g></g></g><g fill="#131516" fill-opacity="1"><g transform="translate(224.59882, 21.660548)"><g><path d="M 1.921875 0 L 1.921875 -14.125 L 3.828125 -14.125 L 3.828125 0 Z M 1.921875 0 "/></g></g></g><g fill="#131516" fill-opacity="1"><g transform="translate(235.956755, 21.660548)"><g><path d="M 13.484375 0 L 11.3125 0 L 3.765625 -11.28125 L 3.703125 -11.28125 L 3.703125 0 L 1.90625 0 L 1.90625 -14.125 L 4.03125 -14.125 L 11.609375 -2.796875 L 11.6875 -2.796875 L 11.6875 -14.125 L 13.484375 -14.125 Z M 13.484375 0 "/></g></g></g><g fill="#131516" fill-opacity="1"><g transform="translate(256.933831, 21.660548)"><g><path d="M 10.875 0 L 1.90625 0 L 1.90625 -14.125 L 10.875 -14.125 L 10.875 -12.40625 L 3.828125 -12.40625 L 3.828125 -8.15625 L 10.5 -8.15625 L 10.5 -6.484375 L 3.828125 -6.484375 L 3.828125 -1.703125 L 10.875 -1.703125 Z M 10.875 0 "/></g></g></g><g fill="#131516" fill-opacity="1"><g transform="translate(274.460566, 21.660548)"><g><path d="M 10.875 0 L 1.90625 0 L 1.90625 -14.125 L 10.875 -14.125 L 10.875 -12.40625 L 3.828125 -12.40625 L 3.828125 -8.15625 L 10.5 -8.15625 L 10.5 -6.484375 L 3.828125 -6.484375 L 3.828125 -1.703125 L 10.875 -1.703125 Z M 10.875 0 "/></g></g></g><g fill="#131516" fill-opacity="1"><g transform="translate(291.987302, 21.660548)"><g><path d="M 1.90625 0 L 1.90625 -14.125 L 7.9375 -14.125 C 8.789062 -14.125 9.539062 -13.972656 10.1875 -13.671875 C 10.832031 -13.367188 11.335938 -12.925781 11.703125 -12.34375 C 12.066406 -11.769531 12.25 -11.070312 12.25 -10.25 C 12.25 -9.625 12.113281 -9.050781 11.84375 -8.53125 C 11.582031 -8.019531 11.15625 -7.601562 10.5625 -7.28125 L 10.5625 -7.21875 C 11.113281 -7.21875 11.53125 -7.066406 11.8125 -6.765625 C 12.101562 -6.472656 12.25 -6.054688 12.25 -5.515625 L 12.25 0 L 10.34375 0 L 10.34375 -5.78125 L 3.828125 -5.78125 L 3.828125 0 Z M 3.828125 -7.4375 L 7.734375 -7.4375 C 8.515625 -7.4375 9.144531 -7.65625 9.625 -8.09375 C 10.113281 -8.53125 10.359375 -9.144531 10.359375 -9.9375 C 10.359375 -10.738281 10.113281 -11.351562 9.625 -11.78125 C 9.144531 -12.21875 8.515625 -12.4375 7.734375 -12.4375 L 3.828125 -12.4375 Z M 3.828125 -7.4375 "/></g></g></g></g></g></g><g fill="#131516" fill-opacity="1"><g transform="translate(185.451762, 168.725186)"><g><path d="M -9.546875 -2.078125 C -6.847656 -1.597656 -4.976562 -0.203125 -3.9375 2.109375 C -2.90625 4.429688 -2.742188 7.582031 -3.453125 11.5625 C -4.160156 15.539062 -5.398438 18.429688 -7.171875 20.234375 C -8.953125 22.035156 -11.191406 22.695312 -13.890625 22.21875 C -16.585938 21.738281 -18.457031 20.34375 -19.5 18.03125 C -20.539062 15.71875 -20.707031 12.570312 -20 8.59375 C -19.289062 4.613281 -18.046875 1.722656 -16.265625 -0.078125 C -14.484375 -1.890625 -12.242188 -2.554688 -9.546875 -2.078125 Z M -10.28125 2 C -11.5 1.78125 -12.507812 2.265625 -13.3125 3.453125 C -14.125 4.640625 -14.78125 6.632812 -15.28125 9.4375 C -15.78125 12.226562 -15.851562 14.320312 -15.5 15.71875 C -15.15625 17.113281 -14.375 17.921875 -13.15625 18.140625 C -11.945312 18.359375 -10.9375 17.875 -10.125 16.6875 C -9.320312 15.5 -8.671875 13.507812 -8.171875 10.71875 C -7.671875 7.914062 -7.59375 5.816406 -7.9375 4.421875 C -8.289062 3.023438 -9.070312 2.21875 -10.28125 2 Z M -10.28125 2 "/></g></g></g><g fill="#131516" fill-opacity="1"><g transform="translate(169.00117, 166.14625)"><g><path d="M -2.640625 -1.203125 L -4.234375 2.328125 L -9.21875 0.078125 L -15.28125 13.4375 L -8.203125 11.765625 L -8.09375 11.8125 L -10.109375 16.28125 L -18.109375 18.109375 L -21.890625 16.390625 L -13.59375 -1.90625 L -17.84375 -3.828125 L -16.25 -7.359375 Z M -2.640625 -1.203125 "/></g></g></g><g fill="#131516" fill-opacity="1"><g transform="translate(153.689967, 159.600544)"><g><path d="M -7.40625 -6.375 C -5.269531 -4.664062 -4.296875 -2.546875 -4.484375 -0.015625 C -4.671875 2.515625 -6.023438 5.359375 -8.546875 8.515625 C -11.066406 11.671875 -13.535156 13.617188 -15.953125 14.359375 C -18.378906 15.097656 -20.660156 14.613281 -22.796875 12.90625 C -24.941406 11.195312 -25.921875 9.078125 -25.734375 6.546875 C -25.554688 4.015625 -24.207031 1.171875 -21.6875 -1.984375 C -19.164062 -5.140625 -16.691406 -7.085938 -14.265625 -7.828125 C -11.835938 -8.566406 -9.550781 -8.082031 -7.40625 -6.375 Z M -9.984375 -3.140625 C -10.953125 -3.910156 -12.070312 -3.960938 -13.34375 -3.296875 C -14.625 -2.640625 -16.15625 -1.203125 -17.9375 1.015625 C -19.695312 3.234375 -20.757812 5.035156 -21.125 6.421875 C -21.488281 7.816406 -21.1875 8.898438 -20.21875 9.671875 C -19.257812 10.441406 -18.140625 10.492188 -16.859375 9.828125 C -15.578125 9.171875 -14.054688 7.734375 -12.296875 5.515625 C -10.515625 3.296875 -9.441406 1.488281 -9.078125 0.09375 C -8.722656 -1.289062 -9.023438 -2.367188 -9.984375 -3.140625 Z M -9.984375 -3.140625 "/></g></g></g><g fill="#131516" fill-opacity="1"><g transform="translate(140.458245, 149.490251)"><g><path d="M -5.609375 -8 C -3.960938 -5.820312 -3.539062 -3.523438 -4.34375 -1.109375 C -5.144531 1.296875 -7.15625 3.71875 -10.375 6.15625 C -13.601562 8.59375 -16.476562 9.867188 -19 9.984375 C -21.53125 10.097656 -23.617188 9.066406 -25.265625 6.890625 C -26.921875 4.703125 -27.347656 2.40625 -26.546875 0 C -25.753906 -2.394531 -23.742188 -4.8125 -20.515625 -7.25 C -17.296875 -9.6875 -14.421875 -10.96875 -11.890625 -11.09375 C -9.359375 -11.21875 -7.265625 -10.1875 -5.609375 -8 Z M -8.90625 -5.5 C -9.65625 -6.488281 -10.726562 -6.816406 -12.125 -6.484375 C -13.53125 -6.160156 -15.363281 -5.140625 -17.625 -3.421875 C -19.882812 -1.710938 -21.359375 -0.234375 -22.046875 1.015625 C -22.742188 2.273438 -22.71875 3.398438 -21.96875 4.390625 C -21.226562 5.367188 -20.15625 5.695312 -18.75 5.375 C -17.351562 5.050781 -15.523438 4.035156 -13.265625 2.328125 C -11.003906 0.609375 -9.523438 -0.878906 -8.828125 -2.140625 C -8.140625 -3.398438 -8.164062 -4.519531 -8.90625 -5.5 Z M -8.90625 -5.5 "/></g></g></g><g fill="#131516" fill-opacity="1"><g transform="translate(130.119658, 136.436935)"><g><path d="M -1.125 -2.671875 L -4.6875 -1.15625 L -6.828125 -6.203125 L -20.34375 -0.5 L -14.015625 3.078125 L -13.96875 3.203125 L -18.484375 5.125 L -25.59375 1.03125 L -27.203125 -2.8125 L -8.6875 -10.625 L -10.5 -14.921875 L -6.9375 -16.4375 Z M -1.125 -2.671875 "/></g></g></g><g fill="#131516" fill-opacity="1"><g transform="translate(123.309284, 121.241454)"><g><path d="M -0.4375 -2.875 L -4.265625 -2.296875 L -5.09375 -7.703125 L -19.59375 -5.484375 L -14.34375 -0.453125 L -14.328125 -0.328125 L -19.171875 0.40625 L -25.046875 -5.296875 L -25.671875 -9.40625 L -5.8125 -12.4375 L -6.515625 -17.0625 L -2.6875 -17.640625 Z M -0.4375 -2.875 "/></g></g></g><g fill="#131516" fill-opacity="1"><g transform="translate(120.445211, 104.838326)"><g><path d="M 1.3125 -9.6875 C 1.039062 -6.957031 -0.203125 -4.984375 -2.421875 -3.765625 C -4.648438 -2.546875 -7.773438 -2.128906 -11.796875 -2.515625 C -15.828125 -2.910156 -18.8125 -3.921875 -20.75 -5.546875 C -22.6875 -7.171875 -23.519531 -9.347656 -23.25 -12.078125 C -22.988281 -14.804688 -21.75 -16.78125 -19.53125 -18 C -17.3125 -19.21875 -14.1875 -19.628906 -10.15625 -19.234375 C -6.132812 -18.847656 -3.148438 -17.84375 -1.203125 -16.21875 C 0.734375 -14.59375 1.570312 -12.414062 1.3125 -9.6875 Z M -2.8125 -10.078125 C -2.695312 -11.304688 -3.265625 -12.273438 -4.515625 -12.984375 C -5.765625 -13.703125 -7.800781 -14.195312 -10.625 -14.46875 C -13.445312 -14.75 -15.539062 -14.660156 -16.90625 -14.203125 C -18.269531 -13.742188 -19.007812 -12.898438 -19.125 -11.671875 C -19.25 -10.453125 -18.6875 -9.484375 -17.4375 -8.765625 C -16.1875 -8.054688 -14.148438 -7.5625 -11.328125 -7.28125 C -8.503906 -7.007812 -6.410156 -7.101562 -5.046875 -7.5625 C -3.679688 -8.019531 -2.9375 -8.859375 -2.8125 -10.078125 Z M -2.8125 -10.078125 "/></g></g></g><g fill="#131516" fill-opacity="1"><g transform="translate(121.703553, 88.233752)"><g><path d="M 3.65625 -9.0625 C 2.726562 -6.488281 1.035156 -4.878906 -1.421875 -4.234375 C -3.890625 -3.597656 -7.023438 -3.96875 -10.828125 -5.34375 C -14.628906 -6.707031 -17.265625 -8.414062 -18.734375 -10.46875 C -20.210938 -12.53125 -20.488281 -14.847656 -19.5625 -17.421875 C -18.632812 -19.992188 -16.945312 -21.597656 -14.5 -22.234375 C -12.050781 -22.878906 -8.925781 -22.519531 -5.125 -21.15625 C -1.320312 -19.78125 1.320312 -18.0625 2.8125 -16 C 4.300781 -13.945312 4.582031 -11.632812 3.65625 -9.0625 Z M -0.25 -10.46875 C 0.164062 -11.632812 -0.140625 -12.710938 -1.171875 -13.703125 C -2.210938 -14.691406 -4.070312 -15.671875 -6.75 -16.640625 C -9.414062 -17.597656 -11.460938 -18.023438 -12.890625 -17.921875 C -14.328125 -17.816406 -15.253906 -17.179688 -15.671875 -16.015625 C -16.085938 -14.859375 -15.78125 -13.78125 -14.75 -12.78125 C -13.71875 -11.789062 -11.867188 -10.816406 -9.203125 -9.859375 C -6.523438 -8.890625 -4.46875 -8.457031 -3.03125 -8.5625 C -1.59375 -8.675781 -0.664062 -9.3125 -0.25 -10.46875 Z M -0.25 -10.46875 "/></g></g></g><g fill="#131516" fill-opacity="1"><g transform="translate(127.877321, 71.986831)"><g/></g></g><g fill="#131516" fill-opacity="1"><g transform="translate(130.459548, 66.153573)"><g><path d="M 6.578125 -7.234375 C 4.816406 -5.140625 2.671875 -4.21875 0.140625 -4.46875 C -2.390625 -4.71875 -5.195312 -6.148438 -8.28125 -8.765625 C -11.375 -11.367188 -13.253906 -13.894531 -13.921875 -16.34375 C -14.585938 -18.789062 -14.039062 -21.0625 -12.28125 -23.15625 C -10.507812 -25.25 -8.363281 -26.164062 -5.84375 -25.90625 C -3.332031 -25.65625 -0.53125 -24.226562 2.5625 -21.625 C 5.644531 -19.007812 7.523438 -16.476562 8.203125 -14.03125 C 8.890625 -11.59375 8.347656 -9.328125 6.578125 -7.234375 Z M 3.40625 -9.90625 C 4.207031 -10.851562 4.296875 -11.972656 3.671875 -13.265625 C 3.046875 -14.554688 1.644531 -16.117188 -0.53125 -17.953125 C -2.695312 -19.773438 -4.46875 -20.890625 -5.84375 -21.296875 C -7.21875 -21.703125 -8.304688 -21.429688 -9.109375 -20.484375 C -9.898438 -19.535156 -9.984375 -18.410156 -9.359375 -17.109375 C -8.742188 -15.816406 -7.351562 -14.257812 -5.1875 -12.4375 C -3.007812 -10.601562 -1.234375 -9.484375 0.140625 -9.078125 C 1.523438 -8.679688 2.613281 -8.957031 3.40625 -9.90625 Z M 3.40625 -9.90625 "/></g></g></g><g fill="#131516" fill-opacity="1"><g transform="translate(140.923866, 53.201153)"><g><path d="M 8.140625 -5.390625 C 5.910156 -3.796875 3.601562 -3.429688 1.21875 -4.296875 C -1.15625 -5.171875 -3.515625 -7.253906 -5.859375 -10.546875 C -8.210938 -13.828125 -9.414062 -16.734375 -9.46875 -19.265625 C -9.53125 -21.796875 -8.445312 -23.859375 -6.21875 -25.453125 C -3.988281 -27.046875 -1.679688 -27.410156 0.703125 -26.546875 C 3.085938 -25.679688 5.457031 -23.609375 7.8125 -20.328125 C 10.15625 -17.035156 11.351562 -14.117188 11.40625 -11.578125 C 11.457031 -9.046875 10.367188 -6.984375 8.140625 -5.390625 Z M 5.734375 -8.765625 C 6.742188 -9.484375 7.101562 -10.546875 6.8125 -11.953125 C 6.519531 -13.359375 5.550781 -15.21875 3.90625 -17.53125 C 2.25 -19.832031 0.804688 -21.347656 -0.421875 -22.078125 C -1.660156 -22.804688 -2.785156 -22.8125 -3.796875 -22.09375 C -4.796875 -21.375 -5.15625 -20.304688 -4.875 -18.890625 C -4.59375 -17.484375 -3.625 -15.628906 -1.96875 -13.328125 C -0.320312 -11.015625 1.117188 -9.492188 2.359375 -8.765625 C 3.609375 -8.046875 4.734375 -8.046875 5.734375 -8.765625 Z M 5.734375 -8.765625 "/></g></g></g><g fill="#131516" fill-opacity="1"><g transform="translate(154.253046, 43.219524)"><g><path d="M 2.703125 -1.0625 L 1.296875 -4.671875 L 6.390625 -6.65625 L 1.046875 -20.3125 L -2.703125 -14.09375 L -2.828125 -14.046875 L -4.609375 -18.609375 L -0.34375 -25.609375 L 3.53125 -27.125 L 10.859375 -8.40625 L 15.21875 -10.109375 L 16.625 -6.5 Z M 2.703125 -1.0625 "/></g></g></g><g fill="#131516" fill-opacity="1"><g transform="translate(169.626938, 36.821888)"><g><path d="M 9.734375 -0.84375 C 7.015625 -0.507812 4.8125 -1.289062 3.125 -3.1875 C 1.445312 -5.09375 0.359375 -8.050781 -0.140625 -12.0625 C -0.640625 -16.070312 -0.3125 -19.203125 0.84375 -21.453125 C 2.007812 -23.703125 3.953125 -24.992188 6.671875 -25.328125 C 9.390625 -25.671875 11.585938 -24.894531 13.265625 -23 C 14.953125 -21.101562 16.046875 -18.148438 16.546875 -14.140625 C 17.046875 -10.128906 16.710938 -6.992188 15.546875 -4.734375 C 14.390625 -2.484375 12.453125 -1.1875 9.734375 -0.84375 Z M 9.21875 -4.953125 C 10.445312 -5.109375 11.269531 -5.875 11.6875 -7.25 C 12.101562 -8.625 12.132812 -10.722656 11.78125 -13.546875 C 11.425781 -16.359375 10.878906 -18.378906 10.140625 -19.609375 C 9.398438 -20.835938 8.414062 -21.375 7.1875 -21.21875 C 5.96875 -21.070312 5.144531 -20.3125 4.71875 -18.9375 C 4.300781 -17.5625 4.269531 -15.46875 4.625 -12.65625 C 4.976562 -9.832031 5.523438 -7.804688 6.265625 -6.578125 C 7.015625 -5.347656 8 -4.804688 9.21875 -4.953125 Z M 9.21875 -4.953125 "/></g></g></g><g fill="#131516" fill-opacity="1"><g transform="translate(186.101242, 34.40212)"><g><path d="M 9.640625 1.5625 C 6.921875 1.226562 4.976562 -0.0625 3.8125 -2.3125 C 2.65625 -4.570312 2.328125 -7.707031 2.828125 -11.71875 C 3.328125 -15.726562 4.414062 -18.679688 6.09375 -20.578125 C 7.78125 -22.472656 9.984375 -23.253906 12.703125 -22.921875 C 15.421875 -22.578125 17.359375 -21.28125 18.515625 -19.03125 C 19.679688 -16.78125 20.015625 -13.648438 19.515625 -9.640625 C 19.015625 -5.628906 17.921875 -2.671875 16.234375 -0.765625 C 14.554688 1.128906 12.359375 1.90625 9.640625 1.5625 Z M 10.15625 -2.546875 C 11.382812 -2.390625 12.367188 -2.925781 13.109375 -4.15625 C 13.847656 -5.382812 14.394531 -7.410156 14.75 -10.234375 C 15.101562 -13.046875 15.070312 -15.140625 14.65625 -16.515625 C 14.238281 -17.890625 13.414062 -18.65625 12.1875 -18.8125 C 10.96875 -18.957031 9.984375 -18.414062 9.234375 -17.1875 C 8.492188 -15.957031 7.945312 -13.9375 7.59375 -11.125 C 7.238281 -8.300781 7.269531 -6.203125 7.6875 -4.828125 C 8.113281 -3.453125 8.9375 -2.691406 10.15625 -2.546875 Z M 10.15625 -2.546875 "/></g></g></g><g fill="#131516" fill-opacity="1"><g transform="translate(202.666153, 36.109199)"><g><path d="M 8.96875 3.890625 C 6.414062 2.890625 4.851562 1.15625 4.28125 -1.3125 C 3.707031 -3.78125 4.15625 -6.894531 5.625 -10.65625 C 7.101562 -14.425781 8.890625 -17.019531 10.984375 -18.4375 C 13.078125 -19.863281 15.398438 -20.078125 17.953125 -19.078125 C 20.503906 -18.085938 22.066406 -16.359375 22.640625 -13.890625 C 23.210938 -11.421875 22.757812 -8.300781 21.28125 -4.53125 C 19.8125 -0.769531 18.03125 1.816406 15.9375 3.234375 C 13.84375 4.660156 11.519531 4.878906 8.96875 3.890625 Z M 10.46875 0.046875 C 11.625 0.492188 12.710938 0.210938 13.734375 -0.796875 C 14.753906 -1.804688 15.78125 -3.632812 16.8125 -6.28125 C 17.84375 -8.925781 18.328125 -10.960938 18.265625 -12.390625 C 18.203125 -13.828125 17.59375 -14.769531 16.4375 -15.21875 C 15.289062 -15.664062 14.203125 -15.390625 13.171875 -14.390625 C 12.148438 -13.390625 11.125 -11.566406 10.09375 -8.921875 C 9.0625 -6.273438 8.578125 -4.226562 8.640625 -2.78125 C 8.710938 -1.34375 9.320312 -0.398438 10.46875 0.046875 Z M 10.46875 0.046875 "/></g></g></g><g fill="#131516" fill-opacity="1"><g transform="translate(218.301605, 41.837035)"><g><path d="M 7.734375 5.984375 C 5.503906 4.390625 4.414062 2.328125 4.46875 -0.203125 C 4.53125 -2.742188 5.734375 -5.660156 8.078125 -8.953125 C 10.429688 -12.234375 12.796875 -14.304688 15.171875 -15.171875 C 17.554688 -16.035156 19.863281 -15.671875 22.09375 -14.078125 C 24.320312 -12.484375 25.410156 -10.421875 25.359375 -7.890625 C 25.304688 -5.359375 24.101562 -2.453125 21.75 0.828125 C 19.40625 4.117188 17.039062 6.195312 14.65625 7.0625 C 12.269531 7.9375 9.960938 7.578125 7.734375 5.984375 Z M 10.140625 2.609375 C 11.148438 3.328125 12.273438 3.320312 13.515625 2.59375 C 14.753906 1.863281 16.195312 0.34375 17.84375 -1.96875 C 19.5 -4.269531 20.46875 -6.125 20.75 -7.53125 C 21.039062 -8.9375 20.679688 -10 19.671875 -10.71875 C 18.671875 -11.4375 17.550781 -11.429688 16.3125 -10.703125 C 15.070312 -9.984375 13.625 -8.472656 11.96875 -6.171875 C 10.320312 -3.859375 9.351562 -1.992188 9.0625 -0.578125 C 8.78125 0.828125 9.140625 1.890625 10.140625 2.609375 Z M 10.140625 2.609375 "/></g></g></g><g fill="#131516" fill-opacity="1"><g transform="translate(232.048425, 51.233724)"><g><path d="M 6.015625 7.703125 C 4.253906 5.609375 3.710938 3.335938 4.390625 0.890625 C 5.066406 -1.554688 6.945312 -4.085938 10.03125 -6.703125 C 13.125 -9.304688 15.929688 -10.734375 18.453125 -10.984375 C 20.972656 -11.234375 23.113281 -10.3125 24.875 -8.21875 C 26.644531 -6.125 27.191406 -3.851562 26.515625 -1.40625 C 25.847656 1.03125 23.96875 3.550781 20.875 6.15625 C 17.789062 8.769531 14.984375 10.203125 12.453125 10.453125 C 9.929688 10.710938 7.785156 9.796875 6.015625 7.703125 Z M 9.1875 5.03125 C 9.988281 5.976562 11.078125 6.25 12.453125 5.84375 C 13.828125 5.4375 15.601562 4.316406 17.78125 2.484375 C 19.945312 0.660156 21.34375 -0.894531 21.96875 -2.1875 C 22.59375 -3.476562 22.503906 -4.597656 21.703125 -5.546875 C 20.910156 -6.492188 19.820312 -6.765625 18.4375 -6.359375 C 17.0625 -5.960938 15.289062 -4.851562 13.125 -3.03125 C 10.945312 -1.195312 9.546875 0.363281 8.921875 1.65625 C 8.304688 2.957031 8.394531 4.082031 9.1875 5.03125 Z M 9.1875 5.03125 "/></g></g></g><g fill="#131516" fill-opacity="1"><g transform="translate(243.025182, 64.70852)"><g/></g></g><g fill="#131516" fill-opacity="1"><g transform="translate(246.783436, 69.863587)"><g><path d="M 2.96875 9.3125 C 2.039062 6.738281 2.316406 4.421875 3.796875 2.359375 C 5.285156 0.304688 7.929688 -1.40625 11.734375 -2.78125 C 15.535156 -4.144531 18.660156 -4.503906 21.109375 -3.859375 C 23.566406 -3.222656 25.257812 -1.617188 26.1875 0.953125 C 27.113281 3.523438 26.835938 5.835938 25.359375 7.890625 C 23.878906 9.953125 21.238281 11.664062 17.4375 13.03125 C 13.632812 14.40625 10.503906 14.769531 8.046875 14.125 C 5.585938 13.488281 3.894531 11.882812 2.96875 9.3125 Z M 6.875 7.90625 C 7.289062 9.070312 8.210938 9.707031 9.640625 9.8125 C 11.078125 9.914062 13.132812 9.484375 15.8125 8.515625 C 18.476562 7.554688 20.328125 6.582031 21.359375 5.59375 C 22.398438 4.601562 22.710938 3.523438 22.296875 2.359375 C 21.878906 1.203125 20.953125 0.566406 19.515625 0.453125 C 18.078125 0.347656 16.023438 0.773438 13.359375 1.734375 C 10.679688 2.703125 8.828125 3.679688 7.796875 4.671875 C 6.765625 5.671875 6.457031 6.75 6.875 7.90625 Z M 6.875 7.90625 "/></g></g></g><g fill="#131516" fill-opacity="1"><g transform="translate(252.762838, 85.405288)"><g><path d="M 0.28125 2.890625 L 4.140625 2.515625 L 4.671875 7.953125 L 19.265625 6.53125 L 14.296875 1.21875 L 14.28125 1.09375 L 19.15625 0.625 L 24.734375 6.640625 L 25.140625 10.78125 L 5.140625 12.734375 L 5.59375 17.390625 L 1.734375 17.765625 Z M 0.28125 2.890625 "/></g></g></g><g fill="#131516" fill-opacity="1"><g transform="translate(254.736157, 101.939282)"><g><path d="M -1.828125 9.609375 C -1.421875 6.898438 -0.0703125 4.992188 2.21875 3.890625 C 4.507812 2.785156 7.648438 2.539062 11.640625 3.15625 C 15.640625 3.757812 18.5625 4.925781 20.40625 6.65625 C 22.25 8.382812 22.96875 10.601562 22.5625 13.3125 C 22.144531 16.019531 20.796875 17.925781 18.515625 19.03125 C 16.242188 20.132812 13.109375 20.382812 9.109375 19.78125 C 5.117188 19.164062 2.191406 17.992188 0.328125 16.265625 C -1.523438 14.535156 -2.242188 12.316406 -1.828125 9.609375 Z M 2.265625 10.21875 C 2.078125 11.4375 2.585938 12.429688 3.796875 13.203125 C 5.003906 13.984375 7.015625 14.59375 9.828125 15.03125 C 12.628906 15.457031 14.722656 15.476562 16.109375 15.09375 C 17.492188 14.71875 18.28125 13.921875 18.46875 12.703125 C 18.65625 11.484375 18.144531 10.484375 16.9375 9.703125 C 15.726562 8.921875 13.722656 8.316406 10.921875 7.890625 C 8.109375 7.453125 6.007812 7.425781 4.625 7.8125 C 3.238281 8.195312 2.453125 9 2.265625 10.21875 Z M 2.265625 10.21875 "/></g></g></g><g fill="#131516" fill-opacity="1"><g transform="translate(252.582447, 118.451276)"><g><path d="M -4.125 8.859375 C -3.0625 6.328125 -1.289062 4.8125 1.1875 4.3125 C 3.675781 3.8125 6.785156 4.347656 10.515625 5.921875 C 14.234375 7.492188 16.773438 9.34375 18.140625 11.46875 C 19.503906 13.601562 19.65625 15.9375 18.59375 18.46875 C 17.519531 20.988281 15.742188 22.5 13.265625 23 C 10.785156 23.507812 7.6875 22.976562 3.96875 21.40625 C 0.238281 19.832031 -2.304688 17.976562 -3.671875 15.84375 C -5.046875 13.707031 -5.195312 11.378906 -4.125 8.859375 Z M -0.3125 10.46875 C -0.800781 11.601562 -0.554688 12.691406 0.421875 13.734375 C 1.410156 14.785156 3.21875 15.867188 5.84375 16.984375 C 8.445312 18.078125 10.460938 18.609375 11.890625 18.578125 C 13.328125 18.554688 14.289062 17.976562 14.78125 16.84375 C 15.257812 15.707031 15.007812 14.613281 14.03125 13.5625 C 13.050781 12.507812 11.257812 11.4375 8.65625 10.34375 C 6.03125 9.226562 4 8.6875 2.5625 8.71875 C 1.125 8.75 0.164062 9.332031 -0.3125 10.46875 Z M -0.3125 10.46875 "/></g></g></g><g fill="#131516" fill-opacity="1"><g transform="translate(246.433751, 133.925921)"><g><path d="M -1.75 2.3125 L 1.34375 4.65625 L -1.96875 9.015625 L 9.71875 17.875 L 9.671875 10.59375 L 9.75 10.5 L 13.65625 13.46875 L 13.671875 21.65625 L 11.15625 24.96875 L -4.859375 12.84375 L -7.6875 16.5625 L -10.78125 14.21875 Z M -1.75 2.3125 "/></g></g></g><g fill="#131516" fill-opacity="1"><g transform="translate(236.668816, 147.413851)"><g><path d="M -2.265625 1.8125 L 0.15625 4.84375 L -4.125 8.265625 L 5.03125 19.71875 L 6.78125 12.65625 L 6.875 12.578125 L 9.9375 16.40625 L 7.90625 24.359375 L 4.65625 26.953125 L -7.875 11.25 L -11.515625 14.171875 L -13.9375 11.140625 Z M -2.265625 1.8125 "/></g></g></g><g fill="#131516" fill-opacity="1"><g transform="translate(223.885318, 158.085582)"><g><path d="M -9.03125 3.703125 C -6.539062 2.566406 -4.210938 2.65625 -2.046875 3.96875 C 0.117188 5.289062 2.039062 7.796875 3.71875 11.484375 C 5.382812 15.160156 5.992188 18.242188 5.546875 20.734375 C 5.097656 23.222656 3.628906 25.035156 1.140625 26.171875 C -1.359375 27.304688 -3.6875 27.21875 -5.84375 25.90625 C -8.007812 24.59375 -9.925781 22.097656 -11.59375 18.421875 C -13.269531 14.734375 -13.882812 11.640625 -13.4375 9.140625 C -13 6.648438 -11.53125 4.835938 -9.03125 3.703125 Z M -7.328125 7.46875 C -8.460938 7.976562 -9.023438 8.953125 -9.015625 10.390625 C -9.003906 11.828125 -8.410156 13.84375 -7.234375 16.4375 C -6.066406 19.007812 -4.945312 20.773438 -3.875 21.734375 C -2.800781 22.691406 -1.695312 22.914062 -0.5625 22.40625 C 0.550781 21.894531 1.101562 20.921875 1.09375 19.484375 C 1.09375 18.046875 0.507812 16.039062 -0.65625 13.46875 C -1.832031 10.875 -2.957031 9.097656 -4.03125 8.140625 C -5.113281 7.179688 -6.210938 6.957031 -7.328125 7.46875 Z M -7.328125 7.46875 "/></g></g></g><g fill="#131516" fill-opacity="1"><g transform="translate(208.870945, 165.285689)"><g><path d="M -2.859375 0.515625 L -2.171875 4.328125 L -7.5625 5.28125 L -4.984375 19.71875 L -0.078125 14.34375 L 0.03125 14.328125 L 0.890625 19.15625 L -4.65625 25.1875 L -8.75 25.90625 L -12.28125 6.125 L -16.875 6.953125 L -17.5625 3.140625 Z M -2.859375 0.515625 "/></g></g></g><g fill="#131516" fill-opacity="1"><g transform="translate(142.94357, 120.134614)"><g><path d="M 4.921875 0 L 4.921875 -42.015625 L 13.484375 -42.015625 L 13.484375 -7.671875 L 32.890625 -7.671875 L 32.890625 0 Z M 4.921875 0 "/></g></g></g><g fill="#131516" fill-opacity="1"><g transform="translate(177.383938, 120.134614)"><g><path d="M 4.921875 0 L 4.921875 -42.015625 L 16.390625 -42.015625 L 27.28125 -12.390625 L 27.5 -12.390625 L 38.328125 -42.015625 L 49.75 -42.015625 L 49.75 0 L 41.1875 0 L 41.1875 -29.671875 L 40.984375 -29.671875 L 30.65625 0 L 23.453125 0 L 13.171875 -29.671875 L 12.96875 -29.671875 L 12.96875 0 Z M 4.921875 0 "/></g></g></g></g></g></svg>