<svg xmlns="http://www.w3.org/2000/svg" xmlns:xlink="http://www.w3.org/1999/xlink" width="500" zoomAndPan="magnify" viewBox="0 0 375 374.999991" height="500" preserveAspectRatio="xMidYMid meet" version="1.0"><defs><g/><clipPath id="5285e20fe5"><rect x="0" width="375" y="0" height="375"/></clipPath><clipPath id="9065c1e4df"><rect x="0" width="168" y="0" height="147"/></clipPath><clipPath id="ac0f3b46be"><rect x="0" width="375" y="0" height="375"/></clipPath></defs><g transform="matrix(1, 0, 0, 1, 0, 0)"><g clip-path="url(#ac0f3b46be)"><g transform="matrix(1, 0, 0, 1, 0, 0)"><g clip-path="url(#5285e20fe5)"><g fill="#131516" fill-opacity="1"><g transform="translate(184.619419, 310.111655)"><g><path d="M -17.875 -3.890625 C -12.8125 -2.984375 -9.3125 -0.367188 -7.375 3.953125 C -5.4375 8.285156 -5.132812 14.171875 -6.46875 21.609375 C -7.8125 29.066406 -10.144531 34.484375 -13.46875 37.859375 C -16.800781 41.234375 -21 42.46875 -26.0625 41.5625 C -31.101562 40.65625 -34.59375 38.039062 -36.53125 33.71875 C -38.476562 29.394531 -38.78125 23.503906 -37.4375 16.046875 C -36.101562 8.609375 -33.769531 3.203125 -30.4375 -0.171875 C -27.101562 -3.554688 -22.914062 -4.796875 -17.875 -3.890625 Z M -19.25 3.75 C -21.53125 3.332031 -23.425781 4.234375 -24.9375 6.453125 C -26.445312 8.671875 -27.671875 12.394531 -28.609375 17.625 C -29.554688 22.863281 -29.707031 26.785156 -29.0625 29.390625 C -28.425781 32.003906 -26.96875 33.519531 -24.6875 33.9375 C -22.425781 34.34375 -20.53125 33.429688 -19 31.203125 C -17.476562 28.984375 -16.242188 25.253906 -15.296875 20.015625 C -14.359375 14.785156 -14.21875 10.867188 -14.875 8.265625 C -15.53125 5.660156 -16.988281 4.15625 -19.25 3.75 Z M -19.25 3.75 "/></g></g></g><g fill="#131516" fill-opacity="1"><g transform="translate(154.4425, 305.446599)"><g><path d="M -4.9375 -2.25 L -7.9375 4.34375 L -17.265625 0.109375 L -28.625 25.125 L -15.359375 22.046875 L -15.15625 22.140625 L -18.96875 30.5 L -33.9375 33.859375 L -41 30.65625 L -25.4375 -3.59375 L -33.40625 -7.21875 L -30.40625 -13.8125 Z M -4.9375 -2.25 "/></g></g></g><g fill="#131516" fill-opacity="1"><g transform="translate(126.337088, 293.505793)"><g><path d="M -13.859375 -11.953125 C -9.847656 -8.742188 -8.019531 -4.769531 -8.375 -0.03125 C -8.726562 4.695312 -11.269531 10.007812 -16 15.90625 C -20.726562 21.820312 -25.359375 25.46875 -29.890625 26.84375 C -34.429688 28.226562 -38.707031 27.316406 -42.71875 24.109375 C -46.71875 20.910156 -48.539062 16.945312 -48.1875 12.21875 C -47.832031 7.5 -45.289062 2.179688 -40.5625 -3.734375 C -35.832031 -9.628906 -31.195312 -13.269531 -26.65625 -14.65625 C -22.125 -16.050781 -17.859375 -15.148438 -13.859375 -11.953125 Z M -18.71875 -5.890625 C -20.53125 -7.335938 -22.625 -7.441406 -25 -6.203125 C -27.382812 -4.972656 -30.238281 -2.285156 -33.5625 1.859375 C -36.882812 6.015625 -38.882812 9.390625 -39.5625 11.984375 C -40.25 14.585938 -39.6875 16.613281 -37.875 18.0625 C -36.082031 19.488281 -33.984375 19.59375 -31.578125 18.375 C -29.179688 17.15625 -26.320312 14.46875 -23 10.3125 C -19.675781 6.164062 -17.679688 2.785156 -17.015625 0.171875 C -16.359375 -2.441406 -16.925781 -4.460938 -18.71875 -5.890625 Z M -18.71875 -5.890625 "/></g></g></g><g fill="#131516" fill-opacity="1"><g transform="translate(102.031965, 275.021749)"><g><path d="M -10.5 -14.984375 C -7.394531 -10.890625 -6.59375 -6.59375 -8.09375 -2.09375 C -9.601562 2.40625 -13.378906 6.9375 -19.421875 11.5 C -25.453125 16.0625 -30.832031 18.453125 -35.5625 18.671875 C -40.300781 18.898438 -44.222656 16.96875 -47.328125 12.875 C -50.421875 8.78125 -51.210938 4.488281 -49.703125 0 C -48.203125 -4.488281 -44.4375 -9.015625 -38.40625 -13.578125 C -32.363281 -18.140625 -26.972656 -20.535156 -22.234375 -20.765625 C -17.503906 -21.003906 -13.59375 -19.078125 -10.5 -14.984375 Z M -16.6875 -10.296875 C -18.082031 -12.148438 -20.085938 -12.769531 -22.703125 -12.15625 C -25.316406 -11.550781 -28.742188 -9.644531 -32.984375 -6.4375 C -37.222656 -3.226562 -39.992188 -0.453125 -41.296875 1.890625 C -42.597656 4.242188 -42.550781 6.347656 -41.15625 8.203125 C -39.769531 10.023438 -37.765625 10.640625 -35.140625 10.046875 C -32.515625 9.453125 -29.082031 7.550781 -24.84375 4.34375 C -20.601562 1.132812 -17.835938 -1.648438 -16.546875 -4.015625 C -15.253906 -6.378906 -15.300781 -8.472656 -16.6875 -10.296875 Z M -16.6875 -10.296875 "/></g></g></g><g fill="#131516" fill-opacity="1"><g transform="translate(83.017912, 251.12852)"><g><path d="M -2.109375 -5 L -8.796875 -2.1875 L -12.78125 -11.625 L -38.078125 -0.953125 L -26.234375 5.78125 L -26.15625 5.96875 L -34.625 9.546875 L -47.890625 1.875 L -50.90625 -5.265625 L -16.265625 -19.890625 L -19.65625 -27.953125 L -12.96875 -30.765625 Z M -2.109375 -5 "/></g></g></g><g fill="#131516" fill-opacity="1"><g transform="translate(70.46078, 223.293647)"><g><path d="M -0.8125 -5.359375 L -7.984375 -4.265625 L -9.53125 -14.40625 L -36.6875 -10.28125 L -26.859375 -0.84375 L -26.828125 -0.640625 L -35.90625 0.734375 L -46.875 -9.96875 L -48.046875 -17.625 L -10.875 -23.265625 L -12.1875 -31.921875 L -5.015625 -33.015625 Z M -0.8125 -5.359375 "/></g></g></g><g fill="#131516" fill-opacity="1"><g transform="translate(65.132224, 193.226696)"><g><path d="M 2.453125 -18.125 C 1.953125 -13.019531 -0.375 -9.320312 -4.53125 -7.03125 C -8.695312 -4.75 -14.539062 -3.976562 -22.0625 -4.71875 C -29.601562 -5.457031 -35.1875 -7.347656 -38.8125 -10.390625 C -42.445312 -13.441406 -44.015625 -17.519531 -43.515625 -22.625 C -43.015625 -27.726562 -40.6875 -31.421875 -36.53125 -33.703125 C -32.382812 -35.992188 -26.539062 -36.769531 -19 -36.03125 C -11.476562 -35.289062 -5.894531 -33.394531 -2.25 -30.34375 C 1.382812 -27.300781 2.953125 -23.226562 2.453125 -18.125 Z M -5.28125 -18.875 C -5.050781 -21.1875 -6.101562 -23.003906 -8.4375 -24.328125 C -10.78125 -25.648438 -14.59375 -26.570312 -19.875 -27.09375 C -25.175781 -27.613281 -29.097656 -27.453125 -31.640625 -26.609375 C -34.179688 -25.765625 -35.566406 -24.1875 -35.796875 -21.875 C -36.015625 -19.59375 -34.957031 -17.78125 -32.625 -16.4375 C -30.300781 -15.09375 -26.488281 -14.160156 -21.1875 -13.640625 C -15.90625 -13.117188 -11.988281 -13.289062 -9.4375 -14.15625 C -6.882812 -15.019531 -5.5 -16.59375 -5.28125 -18.875 Z M -5.28125 -18.875 "/></g></g></g><g fill="#131516" fill-opacity="1"><g transform="translate(67.358867, 162.771469)"><g><path d="M 6.828125 -16.96875 C 5.085938 -12.132812 1.921875 -9.117188 -2.671875 -7.921875 C -7.265625 -6.734375 -13.117188 -7.425781 -20.234375 -10 C -27.359375 -12.5625 -32.300781 -15.765625 -35.0625 -19.609375 C -37.832031 -23.460938 -38.347656 -27.804688 -36.609375 -32.640625 C -34.867188 -37.453125 -31.707031 -40.453125 -27.125 -41.640625 C -22.539062 -42.835938 -16.6875 -42.15625 -9.5625 -39.59375 C -2.445312 -37.019531 2.492188 -33.804688 5.265625 -29.953125 C 8.046875 -26.109375 8.566406 -21.78125 6.828125 -16.96875 Z M -0.46875 -19.609375 C 0.320312 -21.785156 -0.25 -23.800781 -2.1875 -25.65625 C -4.132812 -27.519531 -7.609375 -29.351562 -12.609375 -31.15625 C -17.617188 -32.957031 -21.457031 -33.757812 -24.125 -33.5625 C -26.800781 -33.375 -28.535156 -32.191406 -29.328125 -30.015625 C -30.109375 -27.859375 -29.53125 -25.835938 -27.59375 -23.953125 C -25.664062 -22.078125 -22.195312 -20.238281 -17.1875 -18.4375 C -12.1875 -16.632812 -8.34375 -15.835938 -5.65625 -16.046875 C -2.976562 -16.265625 -1.25 -17.453125 -0.46875 -19.609375 Z M -0.46875 -19.609375 "/></g></g></g><g fill="#131516" fill-opacity="1"><g transform="translate(78.731884, 132.782358)"><g/></g></g><g fill="#131516" fill-opacity="1"><g transform="translate(83.308478, 122.240118)"><g><path d="M 12.3125 -13.53125 C 9 -9.601562 4.976562 -7.878906 0.25 -8.359375 C -4.46875 -8.847656 -9.710938 -11.535156 -15.484375 -16.421875 C -21.273438 -21.304688 -24.796875 -26.03125 -26.046875 -30.59375 C -27.304688 -35.164062 -26.28125 -39.414062 -22.96875 -43.34375 C -19.664062 -47.257812 -15.65625 -48.972656 -10.9375 -48.484375 C -6.226562 -48.003906 -0.976562 -45.320312 4.8125 -40.4375 C 10.582031 -35.550781 14.097656 -30.820312 15.359375 -26.25 C 16.628906 -21.6875 15.613281 -17.445312 12.3125 -13.53125 Z M 6.375 -18.546875 C 7.875 -20.316406 8.035156 -22.410156 6.859375 -24.828125 C 5.691406 -27.242188 3.082031 -30.164062 -0.96875 -33.59375 C -5.039062 -37.03125 -8.363281 -39.125 -10.9375 -39.875 C -13.507812 -40.625 -15.546875 -40.113281 -17.046875 -38.34375 C -18.523438 -36.59375 -18.6875 -34.5 -17.53125 -32.0625 C -16.375 -29.632812 -13.757812 -26.703125 -9.6875 -23.265625 C -5.632812 -19.835938 -2.316406 -17.753906 0.265625 -17.015625 C 2.859375 -16.285156 4.894531 -16.796875 6.375 -18.546875 Z M 6.375 -18.546875 "/></g></g></g><g fill="#131516" fill-opacity="1"><g transform="translate(102.431537, 98.432885)"><g><path d="M 15.265625 -10.09375 C 11.085938 -7.101562 6.769531 -6.421875 2.3125 -8.046875 C -2.144531 -9.679688 -6.570312 -13.570312 -10.96875 -19.71875 C -15.375 -25.875 -17.625 -31.320312 -17.71875 -36.0625 C -17.820312 -40.800781 -15.785156 -44.664062 -11.609375 -47.65625 C -7.441406 -50.632812 -3.132812 -51.3125 1.3125 -49.6875 C 5.769531 -48.0625 10.203125 -44.171875 14.609375 -38.015625 C 19.003906 -31.867188 21.253906 -26.421875 21.359375 -21.671875 C 21.460938 -16.929688 19.429688 -13.070312 15.265625 -10.09375 Z M 10.75 -16.40625 C 12.632812 -17.757812 13.304688 -19.75 12.765625 -22.375 C 12.222656 -25 10.40625 -28.472656 7.3125 -32.796875 C 4.21875 -37.128906 1.515625 -39.976562 -0.796875 -41.34375 C -3.109375 -42.707031 -5.207031 -42.710938 -7.09375 -41.359375 C -8.957031 -40.023438 -9.628906 -38.035156 -9.109375 -35.390625 C -8.585938 -32.753906 -6.78125 -29.269531 -3.6875 -24.9375 C -0.59375 -20.613281 2.117188 -17.773438 4.453125 -16.421875 C 6.785156 -15.078125 8.882812 -15.070312 10.75 -16.40625 Z M 10.75 -16.40625 "/></g></g></g><g fill="#131516" fill-opacity="1"><g transform="translate(126.820879, 80.059202)"><g><path d="M 5.046875 -1.96875 L 2.40625 -8.71875 L 11.953125 -12.453125 L 1.953125 -38.03125 L -5.078125 -26.390625 L -5.28125 -26.296875 L -8.625 -34.859375 L -0.59375 -47.9375 L 6.625 -50.75 L 20.3125 -15.71875 L 28.453125 -18.90625 L 31.09375 -12.15625 Z M 5.046875 -1.96875 "/></g></g></g><g fill="#131516" fill-opacity="1"><g transform="translate(154.978191, 68.244542)"><g><path d="M 18.21875 -1.59375 C 13.125 -0.957031 9.003906 -2.414062 5.859375 -5.96875 C 2.722656 -9.53125 0.6875 -15.0625 -0.25 -22.5625 C -1.1875 -30.070312 -0.570312 -35.9375 1.59375 -40.15625 C 3.769531 -44.375 7.40625 -46.800781 12.5 -47.4375 C 17.582031 -48.070312 21.691406 -46.613281 24.828125 -43.0625 C 27.972656 -39.507812 30.015625 -33.976562 30.953125 -26.46875 C 31.890625 -18.96875 31.269531 -13.101562 29.09375 -8.875 C 26.925781 -4.65625 23.300781 -2.226562 18.21875 -1.59375 Z M 17.265625 -9.3125 C 19.566406 -9.601562 21.101562 -11.03125 21.875 -13.59375 C 22.65625 -16.15625 22.71875 -20.070312 22.0625 -25.34375 C 21.40625 -30.625 20.382812 -34.414062 19 -36.71875 C 17.613281 -39.019531 15.769531 -40.023438 13.46875 -39.734375 C 11.195312 -39.453125 9.660156 -38.023438 8.859375 -35.453125 C 8.054688 -32.878906 7.984375 -28.953125 8.640625 -23.671875 C 9.296875 -18.398438 10.328125 -14.617188 11.734375 -12.328125 C 13.148438 -10.035156 14.992188 -9.03125 17.265625 -9.3125 Z M 17.265625 -9.3125 "/></g></g></g><g fill="#131516" fill-opacity="1"><g transform="translate(185.178217, 63.716406)"><g><path d="M 18.0625 2.9375 C 12.96875 2.300781 9.332031 -0.125 7.15625 -4.34375 C 4.988281 -8.570312 4.375 -14.4375 5.3125 -21.9375 C 6.25 -29.445312 8.285156 -34.976562 11.421875 -38.53125 C 14.566406 -42.082031 18.6875 -43.539062 23.78125 -42.90625 C 28.863281 -42.269531 32.488281 -39.84375 34.65625 -35.625 C 36.832031 -31.40625 37.453125 -25.539062 36.515625 -18.03125 C 35.578125 -10.53125 33.535156 -5 30.390625 -1.4375 C 27.253906 2.113281 23.144531 3.570312 18.0625 2.9375 Z M 19.015625 -4.78125 C 21.316406 -4.488281 23.160156 -5.492188 24.546875 -7.796875 C 25.941406 -10.097656 26.96875 -13.882812 27.625 -19.15625 C 28.28125 -24.4375 28.21875 -28.359375 27.4375 -30.921875 C 26.65625 -33.484375 25.113281 -34.910156 22.8125 -35.203125 C 20.539062 -35.484375 18.703125 -34.476562 17.296875 -32.1875 C 15.890625 -29.894531 14.859375 -26.109375 14.203125 -20.828125 C 13.546875 -15.554688 13.613281 -11.632812 14.40625 -9.0625 C 15.207031 -6.488281 16.742188 -5.0625 19.015625 -4.78125 Z M 19.015625 -4.78125 "/></g></g></g><g fill="#131516" fill-opacity="1"><g transform="translate(215.562246, 66.752153)"><g><path d="M 16.78125 7.28125 C 12 5.40625 9.070312 2.160156 8 -2.453125 C 6.9375 -7.078125 7.78125 -12.914062 10.53125 -19.96875 C 13.289062 -27.019531 16.628906 -31.878906 20.546875 -34.546875 C 24.460938 -37.210938 28.8125 -37.609375 33.59375 -35.734375 C 38.363281 -33.867188 41.285156 -30.628906 42.359375 -26.015625 C 43.429688 -21.398438 42.585938 -15.566406 39.828125 -8.515625 C 37.078125 -1.460938 33.738281 3.394531 29.8125 6.0625 C 25.894531 8.738281 21.550781 9.144531 16.78125 7.28125 Z M 19.609375 0.046875 C 21.765625 0.890625 23.796875 0.367188 25.703125 -1.515625 C 27.617188 -3.410156 29.539062 -6.832031 31.46875 -11.78125 C 33.40625 -16.726562 34.3125 -20.539062 34.1875 -23.21875 C 34.070312 -25.90625 32.9375 -27.671875 30.78125 -28.515625 C 28.644531 -29.347656 26.609375 -28.820312 24.671875 -26.9375 C 22.742188 -25.0625 20.8125 -21.648438 18.875 -16.703125 C 16.945312 -11.753906 16.050781 -7.929688 16.1875 -5.234375 C 16.332031 -2.546875 17.472656 -0.785156 19.609375 0.046875 Z M 19.609375 0.046875 "/></g></g></g><g fill="#131516" fill-opacity="1"><g transform="translate(244.268372, 77.163868)"><g><path d="M 14.484375 11.1875 C 10.304688 8.195312 8.269531 4.332031 8.375 -0.40625 C 8.476562 -5.15625 10.726562 -10.601562 15.125 -16.75 C 19.53125 -22.90625 23.957031 -26.796875 28.40625 -28.421875 C 32.863281 -30.046875 37.179688 -29.363281 41.359375 -26.375 C 45.523438 -23.394531 47.554688 -19.535156 47.453125 -14.796875 C 47.359375 -10.054688 45.109375 -4.609375 40.703125 1.546875 C 36.304688 7.691406 31.878906 11.578125 27.421875 13.203125 C 22.960938 14.835938 18.648438 14.164062 14.484375 11.1875 Z M 19 4.875 C 20.882812 6.226562 22.984375 6.222656 25.296875 4.859375 C 27.609375 3.492188 30.3125 0.648438 33.40625 -3.671875 C 36.5 -8.003906 38.316406 -11.484375 38.859375 -14.109375 C 39.398438 -16.734375 38.726562 -18.722656 36.84375 -20.078125 C 34.976562 -21.410156 32.878906 -21.398438 30.546875 -20.046875 C 28.210938 -18.703125 25.5 -15.863281 22.40625 -11.53125 C 19.3125 -7.207031 17.503906 -3.722656 16.984375 -1.078125 C 16.460938 1.554688 17.132812 3.539062 19 4.875 Z M 19 4.875 "/></g></g></g><g fill="#131516" fill-opacity="1"><g transform="translate(269.532821, 94.315304)"><g><path d="M 11.28125 14.40625 C 7.96875 10.476562 6.941406 6.226562 8.203125 1.65625 C 9.472656 -2.90625 12.992188 -7.628906 18.765625 -12.515625 C 24.554688 -17.398438 29.804688 -20.082031 34.515625 -20.5625 C 39.234375 -21.050781 43.25 -19.332031 46.5625 -15.40625 C 49.863281 -11.488281 50.882812 -7.242188 49.625 -2.671875 C 48.375 1.890625 44.851562 6.613281 39.0625 11.5 C 33.289062 16.382812 28.039062 19.066406 23.3125 19.546875 C 18.59375 20.035156 14.582031 18.320312 11.28125 14.40625 Z M 17.21875 9.390625 C 18.71875 11.160156 20.753906 11.671875 23.328125 10.921875 C 25.910156 10.171875 29.226562 8.082031 33.28125 4.65625 C 37.351562 1.21875 39.972656 -1.707031 41.140625 -4.125 C 42.304688 -6.539062 42.140625 -8.632812 40.640625 -10.40625 C 39.160156 -12.15625 37.128906 -12.660156 34.546875 -11.921875 C 31.960938 -11.191406 28.632812 -9.109375 24.5625 -5.671875 C 20.507812 -2.242188 17.898438 0.679688 16.734375 3.109375 C 15.578125 5.546875 15.738281 7.640625 17.21875 9.390625 Z M 17.21875 9.390625 "/></g></g></g><g fill="#131516" fill-opacity="1"><g transform="translate(289.820383, 119.155687)"><g/></g></g><g fill="#131516" fill-opacity="1"><g transform="translate(296.669711, 128.385707)"><g><path d="M 5.578125 17.4375 C 3.835938 12.601562 4.351562 8.257812 7.125 4.40625 C 9.894531 0.5625 14.835938 -2.644531 21.953125 -5.21875 C 29.078125 -7.78125 34.929688 -8.460938 39.515625 -7.265625 C 44.109375 -6.078125 47.273438 -3.066406 49.015625 1.765625 C 50.753906 6.578125 50.238281 10.90625 47.46875 14.75 C 44.695312 18.601562 39.75 21.8125 32.625 24.375 C 25.507812 26.945312 19.65625 27.632812 15.0625 26.4375 C 10.476562 25.25 7.316406 22.25 5.578125 17.4375 Z M 12.875 14.796875 C 13.664062 16.972656 15.394531 18.15625 18.0625 18.34375 C 20.738281 18.539062 24.578125 17.738281 29.578125 15.9375 C 34.585938 14.132812 38.0625 12.300781 40 10.4375 C 41.945312 8.582031 42.523438 6.566406 41.734375 4.390625 C 40.953125 2.234375 39.21875 1.046875 36.53125 0.828125 C 33.851562 0.617188 30.007812 1.414062 25 3.21875 C 20 5.019531 16.53125 6.859375 14.59375 8.734375 C 12.664062 10.617188 12.09375 12.640625 12.875 14.796875 Z M 12.875 14.796875 "/></g></g></g><g fill="#131516" fill-opacity="1"><g transform="translate(307.731246, 156.84789)"><g><path d="M 0.53125 5.390625 L 7.75 4.6875 L 8.75 14.890625 L 36.078125 12.203125 L 26.765625 2.28125 L 26.75 2.0625 L 35.890625 1.171875 L 46.28125 12.4375 L 47.046875 20.140625 L 9.625 23.8125 L 10.46875 32.53125 L 3.25 33.234375 Z M 0.53125 5.390625 "/></g></g></g><g fill="#131516" fill-opacity="1"><g transform="translate(311.456405, 187.155148)"><g><path d="M -3.421875 17.984375 C -2.648438 12.898438 -0.125 9.328125 4.15625 7.265625 C 8.4375 5.203125 14.316406 4.738281 21.796875 5.875 C 29.273438 7.019531 34.742188 9.207031 38.203125 12.4375 C 41.671875 15.664062 43.019531 19.820312 42.25 24.90625 C 41.476562 29.96875 38.957031 33.53125 34.6875 35.59375 C 30.414062 37.65625 24.539062 38.113281 17.0625 36.96875 C 9.582031 35.832031 4.101562 33.648438 0.625 30.421875 C -2.84375 27.191406 -4.191406 23.046875 -3.421875 17.984375 Z M 4.265625 19.140625 C 3.921875 21.429688 4.875 23.300781 7.125 24.75 C 9.382812 26.195312 13.144531 27.316406 18.40625 28.109375 C 23.664062 28.910156 27.59375 28.957031 30.1875 28.25 C 32.78125 27.539062 34.25 26.039062 34.59375 23.75 C 34.9375 21.476562 33.976562 19.609375 31.71875 18.140625 C 29.457031 16.679688 25.695312 15.550781 20.4375 14.75 C 15.175781 13.957031 11.25 13.921875 8.65625 14.640625 C 6.070312 15.367188 4.609375 16.867188 4.265625 19.140625 Z M 4.265625 19.140625 "/></g></g></g><g fill="#131516" fill-opacity="1"><g transform="translate(307.615384, 217.448732)"><g><path d="M -7.734375 16.578125 C -5.734375 11.847656 -2.410156 9.007812 2.234375 8.0625 C 6.890625 7.125 12.703125 8.125 19.671875 11.0625 C 26.648438 14 31.421875 17.460938 33.984375 21.453125 C 36.546875 25.441406 36.828125 29.800781 34.828125 34.53125 C 32.835938 39.25 29.519531 42.082031 24.875 43.03125 C 20.226562 43.976562 14.414062 42.984375 7.4375 40.046875 C 0.46875 37.109375 -4.296875 33.640625 -6.859375 29.640625 C -9.429688 25.648438 -9.722656 21.296875 -7.734375 16.578125 Z M -0.578125 19.59375 C -1.472656 21.726562 -1.003906 23.773438 0.828125 25.734375 C 2.660156 27.691406 6.023438 29.707031 10.921875 31.78125 C 15.828125 33.84375 19.625 34.847656 22.3125 34.796875 C 25 34.742188 26.789062 33.648438 27.6875 31.515625 C 28.582031 29.398438 28.113281 27.351562 26.28125 25.375 C 24.457031 23.40625 21.09375 21.390625 16.1875 19.328125 C 11.289062 17.253906 7.492188 16.25 4.796875 16.3125 C 2.109375 16.382812 0.316406 17.476562 -0.578125 19.59375 Z M -0.578125 19.59375 "/></g></g></g><g fill="#131516" fill-opacity="1"><g transform="translate(296.44601, 245.868431)"><g><path d="M -3.265625 4.328125 L 2.515625 8.703125 L -3.671875 16.875 L 18.234375 33.4375 L 18.140625 19.828125 L 18.265625 19.65625 L 25.59375 25.203125 L 25.59375 40.53125 L 20.921875 46.71875 L -9.078125 24.03125 L -14.359375 31 L -20.140625 26.625 Z M -3.265625 4.328125 "/></g></g></g><g fill="#131516" fill-opacity="1"><g transform="translate(278.631824, 270.668736)"><g><path d="M -4.234375 3.390625 L 0.296875 9.046875 L -7.703125 15.453125 L 9.453125 36.90625 L 12.6875 23.671875 L 12.859375 23.53125 L 18.609375 30.703125 L 14.84375 45.578125 L 8.796875 50.421875 L -14.703125 21.046875 L -21.546875 26.515625 L -26.078125 20.859375 Z M -4.234375 3.390625 "/></g></g></g><g fill="#131516" fill-opacity="1"><g transform="translate(255.264934, 290.327186)"><g><path d="M -16.921875 6.953125 C -12.242188 4.828125 -7.875 4.988281 -3.8125 7.4375 C 0.238281 9.894531 3.832031 14.566406 6.96875 21.453125 C 10.09375 28.347656 11.242188 34.128906 10.421875 38.796875 C 9.609375 43.472656 6.863281 46.875 2.1875 49 C -2.476562 51.113281 -6.835938 50.941406 -10.890625 48.484375 C -14.953125 46.035156 -18.546875 41.363281 -21.671875 34.46875 C -24.804688 27.582031 -25.960938 21.800781 -25.140625 17.125 C -24.328125 12.457031 -21.585938 9.066406 -16.921875 6.953125 Z M -13.703125 14.015625 C -15.816406 14.972656 -16.863281 16.796875 -16.84375 19.484375 C -16.820312 22.171875 -15.710938 25.929688 -13.515625 30.765625 C -11.316406 35.617188 -9.210938 38.9375 -7.203125 40.71875 C -5.191406 42.5 -3.128906 42.910156 -1.015625 41.953125 C 1.066406 41.003906 2.101562 39.179688 2.09375 36.484375 C 2.09375 33.796875 0.992188 30.023438 -1.203125 25.171875 C -3.398438 20.335938 -5.507812 17.03125 -7.53125 15.25 C -9.5625 13.476562 -11.617188 13.066406 -13.703125 14.015625 Z M -13.703125 14.015625 "/></g></g></g><g fill="#131516" fill-opacity="1"><g transform="translate(227.78378, 303.638687)"><g><path d="M -5.34375 0.953125 L -4.0625 8.09375 L -14.140625 9.921875 L -9.28125 36.953125 L -0.125 26.859375 L 0.09375 26.828125 L 1.734375 35.875 L -8.6875 47.140625 L -16.3125 48.515625 L -22.96875 11.5 L -31.578125 13.046875 L -32.859375 5.90625 Z M -5.34375 0.953125 "/></g></g></g></g></g><g transform="matrix(1, 0, 0, 1, 103, 105)"><g clip-path="url(#9065c1e4df)"><g fill="#333333" fill-opacity="1"><g transform="translate(0.783613, 116.988405)"><g><path d="M 9.21875 0 L 9.21875 -78.640625 L 25.234375 -78.640625 L 25.234375 -14.375 L 61.546875 -14.375 L 61.546875 0 Z M 9.21875 0 "/></g></g></g><g fill="#333333" fill-opacity="1"><g transform="translate(65.244764, 116.988405)"><g><path d="M 9.21875 0 L 9.21875 -78.640625 L 30.671875 -78.640625 L 51.0625 -23.203125 L 51.453125 -23.203125 L 71.75 -78.640625 L 93.109375 -78.640625 L 93.109375 0 L 77.078125 0 L 77.078125 -55.53125 L 76.703125 -55.53125 L 57.375 0 L 43.875 0 L 24.65625 -55.53125 L 24.265625 -55.53125 L 24.265625 0 Z M 9.21875 0 "/></g></g></g></g></g></g></g></svg>